<mxfile host="65bd71144e">
    <diagram id="HIP3nbAZw_EuaXWnEj3U" name="Page-1">
        <mxGraphModel dx="914" dy="477" grid="1" gridSize="10" guides="1" tooltips="1" connect="1" arrows="1" fold="1" page="1" pageScale="1" pageWidth="850" pageHeight="1100" math="0" shadow="0">
            <root>
                <mxCell id="0"/>
                <mxCell id="1" parent="0"/>
                <mxCell id="7" value="http://ics2o.mths.ca" style="swimlane;whiteSpace=wrap;html=1;" vertex="1" parent="1">
                    <mxGeometry x="50" y="60" width="760" height="480" as="geometry"/>
                </mxCell>
                <mxCell id="8" value="&lt;font style=&quot;font-size: 35px;&quot;&gt;&lt;br&gt;&lt;/font&gt;&lt;div style=&quot;color: rgb(230, 237, 243); font-family: Consolas, &amp;quot;Courier New&amp;quot;, monospace; font-weight: normal; line-height: 19px; font-size: 35px;&quot;&gt;&lt;div&gt;&lt;span style=&quot;color: #e6edf3;&quot;&gt;&lt;font style=&quot;font-size: 35px;&quot;&gt;Random Number Generator with JavaScript&lt;/font&gt;&lt;/span&gt;&lt;/div&gt;&lt;/div&gt;&lt;font style=&quot;font-size: 35px;&quot;&gt;&lt;br&gt;&lt;/font&gt;" style="whiteSpace=wrap;html=1;fillColor=#0050ef;fontColor=#ffffff;strokeColor=#001DBC;" vertex="1" parent="7">
                    <mxGeometry y="20" width="760" height="60" as="geometry"/>
                </mxCell>
                <mxCell id="10" value="&lt;div style=&quot;font-family: Consolas, &amp;quot;Courier New&amp;quot;, monospace; line-height: 19px;&quot;&gt;&lt;font style=&quot;font-size: 17px;&quot; color=&quot;#ffffff&quot;&gt;You guessed correctlyâœ…ðŸ˜‹!&lt;/font&gt;&lt;/div&gt;" style="text;html=1;align=center;verticalAlign=middle;resizable=0;points=[];autosize=1;strokeColor=none;fillColor=none;fontSize=30;" vertex="1" parent="7">
                    <mxGeometry x="10" y="375" width="280" height="40" as="geometry"/>
                </mxCell>
                <mxCell id="11" value="Guess" style="rounded=1;whiteSpace=wrap;html=1;labelBackgroundColor=none;fontSize=18;" vertex="1" parent="7">
                    <mxGeometry x="20" y="300" width="120" height="50" as="geometry"/>
                </mxCell>
                <mxCell id="12" value="" style="group" vertex="1" connectable="0" parent="7">
                    <mxGeometry x="10" y="210" width="390" height="70" as="geometry"/>
                </mxCell>
                <mxCell id="13" value="&lt;span style=&quot;font-size: 30px;&quot;&gt;1&lt;/span&gt;" style="rounded=1;whiteSpace=wrap;html=1;fontSize=36;" vertex="1" parent="12">
                    <mxGeometry x="129.99594594594595" y="20" width="179.18918918918916" height="35" as="geometry"/>
                </mxCell>
                <mxCell id="15" value="Your prediction" style="text;html=1;align=center;verticalAlign=middle;resizable=0;points=[];autosize=1;strokeColor=none;fillColor=none;fontSize=16;" vertex="1" parent="12">
                    <mxGeometry y="22.5" width="130" height="30" as="geometry"/>
                </mxCell>
                <mxCell id="9" value="&lt;span style=&quot;font-family: Helvetica, Arial, sans-serif; text-align: start; font-size: 11px;&quot;&gt;&lt;font color=&quot;#ffffff&quot; style=&quot;font-size: 11px;&quot;&gt;This program randomly generatres a number from 1-6! Take a wild guess and see if you can predict the outcome!&lt;/font&gt;&lt;/span&gt;" style="text;html=1;align=center;verticalAlign=middle;resizable=0;points=[];autosize=1;strokeColor=none;fillColor=none;fontSize=11;" vertex="1" parent="7">
                    <mxGeometry y="140" width="570" height="30" as="geometry"/>
                </mxCell>
                <mxCell id="17" value="" style="shape=image;verticalLabelPosition=bottom;labelBackgroundColor=default;verticalAlign=top;aspect=fixed;imageAspect=0;image=data:image/gif,R0lGODlhbwE5AXAAACH5BAEAANcALAAAAABvATkBh////wAAAAsDAwsLCxQKChwMDCQRETAXFzodHUwlJVUpKVwtLWw1NXQ5OXs9PYtERJVJSZxNTaRRUatUVLBXV7VZWb1dXcFfX8RhYaFPT5FHR4RBQWQxMUMhITMZGSwWFlAnJ4E/P8pkZNFnZ9tsbOBvb+Zxcex0dPJ2dvd6elVSTZ1AQNVpaSMKCnIvL3I2NqwvLyMBAcQ6OpYAACwAAEAfHwgIB+VjY5oJCYsAAO1sbNhHR6oYGDsAAEMAABkYF9BOTrUqKlQAAPJsbPBnZ+lXV8Q1NWMAAM9WVuVLS+JDQ+A+PqxERHQAAN5gYJU7O989PdM5OdI3N3YgIEQSEnsAABQDAzwQEHshIZsqKowmJmQbG1QWFksVFTsNDWMTE5EnJ844OMo2NmwdHUoeHnUJCRsDA7wzM3MeHisLCxQUExwbGyIgHiooJrWto1sAALQxMTMNDSQjIzw8O2hnZYiGg6SkpLS0tLy8vMPDw8vLy9TU1KysrJmZmHR0dFxcXIMAAC0sK1hWU+zs6/j49/v7+2wAAN3d3fT08+Tk40RDQksAAH16d/Hv7ouLixAQD0xMTDU0MzMAAGJdWO5jY79BQWQrK6QsLIQkJHwXF1wZGVggIIo2NpUpKUsODrwsLMEvL6wlJVQPD6ozM0QNDSEfHUE+O4iDfL21q8C5r6qjmpuUjHJtZzQyL5KMhJaQiLixqFJOSrCpn1sREWZiXGsUFHMVFWlkX2gMDJseHnhzbZQcHDAuLKykm6Ock4UZGTs5NsfAt9HMxdbSzM7JwcO8s4wbG0tIRNzY0+nn5J4gIMrDu+Th3eHd2aOemKIhIZkTE7EkJIJ8dY0TE4APD5OPikVCPgAAAAAAAAAAAAAAAAAAAAAAAAAAAAAAAAAAAAAAAAAAAAAAAAAAAAAAAAAAAAAAAAAAAAAAAAAAAAAAAAAAAAAAAAAAAAAAAAAAAAAAAAAAAAAAAAAAAAAAAAAAAAAAAAAAAAAAAAAAAAAAAAAAAAAAAAAAAAAAAAAAAAiwAK8JHEiwoMGDCBMqXMiwocOHECNKnEixosWLGDNq3Mixo8ePIEOKHEmypMmTKFOqXMmypcuXMGPKnEmzps2bOHPq3Mmzp8+fQIMKHUq0qNGjSJMqXcq0qdOnUKNKnUq1qtWrWLNq3cq1q9evYMOKHUu2rNmzaNOqXcu2rdu3cOPKnUu3rt27ePPq3cu3r9+/gAMLHky4sOHDiBMrXsy4sePHkCNLnky5suXLmAkG2Bz/ILNnj5xDix5NurTp050/F0bNurXr17Bbqy4bu7bt27hzb54tVbfv38CDm+bNU7jx48iTcybeUrnz59CFMwcZ/baVzVayP7ISY7v27Fa8hwdvxcB38gOuB1Bfvf3u6RPdhzcQB0GcDpvwb1qwiQOHFy848MCAK2SwwgQIYlABBgyKwGCDFTgoggUSRvjggw4yOAEGG1ZQAYIfFmiggQM+AKB/m+TXQX1xGGDedgE84h5r8C10HHj0IYBAiv+98MCBE4ggpBMllIDCkSikoOSSTCaZgpNKQvnkkUw+GWWTVzpJpZRVLslllUgWWYIITggpwocTkGjiCxzw14F9BnTH/55yNQqXHX34cSDIExNEKCQKRlLZJZaDFmrooYgmqmihSX656JFFmunhCgOi2MGKLYJ3m2rAlXffJgA+kAEGQhrZpZaOJprqoqy26uqrhwqKKKRjkorgAw5wsAkCMchWWW6edvDfAwiWiuSgq7aaLKzMNuvss1imeqQIEzzQgQGnSQZbeJ9y4MCBEcoKbbPLjmvuueZKiaQTSEpJ7QsdzPleY6xZcd+wK5Bq6qnlousvtP3G2q6X7RppJJFECqmghx4i6PCIJeIa4In+LcAfMJfq2MED4kYpAgejLYaaFZuIisG+Xv6rMrrt0loCwpIq2OfDGdQccYD/VWyxivhlrP+jfWu06KIBj3g3gGjy+uYAsihE02toiLEWhwMiBLyyoGECevDLLzd44YIOMtwwzQX+WCLF/KloHwJDu/gI0deFF+OMsR29XozhEVB0eI/EYF5oVoiA7BkzPL0cYaw9EscDVUfZssFEcl3m1xw2XHOBlA7ogANsLtBmfgrkl9/P9bVdtN6ny5heaewlTTfgAQyQ3nZE1y5Hiz8jcCnPHfDneY8mlrhCgQ7P7KEFHp5ppggZIMCZARkM6sQOM+QgSciAtWbACxMci8IEb7I99CMtnC77djC+Tpq86qFPwHwuxnH72rpfeukC9++3n3/8sxmggD4KIIF+lIE0Fe94Clr/nhMiV6SWtcxfKFiB89bDAcFViQhKgMYMNng90filNVbYmAWRNIEF4OY84yEA0eQUP/rczgC5s5+KdvY7//hvcwIqkYGK16HkmYmBYmqgA491JVhZjV9YUxkGOGA36KmLCDsIxQY3mAMfYE8vrYkDByqgrhJy5hH/w6EYI0bAA1pAQaRq0JCCyEaDOdBKK2PawI4YR2YFDAUPwFbsKggmJEhxilMUAmny0poOrMCCXlqijAJgAA5gYFVEQEEkiaCDSRJhSqtqFL8wSUcj1vFZXPpSJw31MfUYYAVcKoIYAMnKIwzSLqxpJBfBtET1WGEBs7SSJImABCQo4ZfA/KUU/4L5SyY4YALs+uSplMnMZqZAB3nczAD42KQd8CAHrARkE145F6m9AJFeKoIK9EiADnQvBcx7wRN8KYV2DlOYSpCCGNophni+UwxToAICvunMf4Wyn4RKGbSWSIDNONFLJbAmNrOpTdfFpV7mLMGgROCAOHDGkBItwQPsM4V5/hIK8hyFMjAxhS+IQhRxiAMV4iCKL0wBE6MQgxjGMIAFdGyZYAKoTne6JCJEMwAE4AC7kIQBB3TgCAzNZg4c+hbUNPKcXXLCRi+aAYmicwEsncIwz6CMKYiCCt2J0SN+8Ig1yOGsi8QOFfIZgA5YlafOQoEO+FDEnf6zWUu0mwegiv9OB8RJCAtN6hStx821oGZqjeuSRjtA1beioANUOMMTJDEGsMpODnOggyP4gAc85EEPetjDIfSAhzv0wQ90kANnrDCBR+UUrrBF1iWhpVFyCnVJGkWAFQArWIZ20IOGPQ0CDsm0DHTABptBAAScUCURGGAKo/jCAB4RCEFsVg+NAIB2t8vd7TYCD35Q7XoeENsL0rW8rkIBKtT1KhSIQAHIDcBemQS+AMQAqb1lqCCveBbUGFJaxuUMAhywLyiJwAMxQMAfnJGHQRSCu4WIsIQL0YhGjLYPdFCE3RjJV0WxF73o1RKzaruZoDJXSSQWQn4Fu1/gmsW/Va3rlEpoSqrZwbFLE3DeHPzAhzwc4hCDqHAiLExaOzjCD4KIRFo384hNVODGII4yKFtlAZAlt7VLEoEJ77tiwW6Tv2MxTQg73CQaG9TGicIAAlT3CDlEYg6KiHMkIiGHJa/WAB1wQC7bK1Ap+1lRJAbqbaOU4wBIogld9nLSaGMac2oSTB9b5COo+agKcGDNA4jv+hTXu2Mm9s+g9hcRZhslDMB3M3uFEol9kOj8MhUsYt5E9xzlXgcs8pZ7Ti+1SrQ5/4kqXFgb5WtDTewUnDcFUl1kUMH5sfUcIbCtVqrhoP/2FeHG+EtEcAIt9NhkMqe3X48utrhZhoEFxHe+idyEffEb7aQSFsxZOc3iUNYkJ0BAjwGQ9VvH/UlS83tcGl3k9k4cpQxgSxLQbrdvC4uV0xiAaqnKrYAjIFFh/7tVROjFxeOKAgyo+8pSKgEHtsPbFT870VaEN1VOY4UtGqoEzRPwCui9cZzW/EmjnmQKIqnMgGPHAQRXUgXixeUuWw/RXW4xta9yGkcXqgT1NSjjoBzlTvLB38UuAREoUYQiEJOYXc85hRYIsI5/vK0dJjHCW90EK7C6evlV+uGqIu8MSGsCm2gimomN9ZtLrwIRYEIlpADSM4hCDDGFguJHcQb/ew5TCpYonwIcYIGbLirZPw/69xhb9FYv9e0lT6orVe4UlvMxlCiowAJu7Uh+H9vvXRKBiaDbTigoYQmjGMMlIjtMMVBBFIqHpxgwIQoZtfzJ6cUAYzdjzub6NQA+QHq0lyqJ6q3dywx/iry9/aRaYseRloc9rK7eTxG8oAZfOIMUlgCFJcjzDJfABCZYOgaT9m0MmbAFJkJxBvUrIRpTYFEGgHyXZ2ubEQeCsG+bt24Kt0HbhHBNcGi91XakpxQOxwH75iWRxmSOFn6wMmqv9299F0dDRwWh0E5nQFJf1QLZ8Rr0IQr7l3uKA06G0nEKcFF8BSgG6AMJN30xEAM5/9AEMSB9DLVUFYgUTXdOXGJ+ehRCdid+UCgCHSAKkvUFcXAdmmYF01UKbjYHgdAGckBWRUMailNSAUBeiOIEBshIDxB0KaB8DNiAg/WDM9B2RKhUi6Z9rAN00vNTATBcGQiFN7cCAUAFVHAdehMJkMAKftAHfcBZoRVkifBjoJUHeMAHjvAHilBnoSEjLxArQ4eD6mJwhtaDDSgJQGiHvZUD0zYvS3Eam/BIivUA4uWE4SaIN4dHTKYIPKYHiYAI3bVdEhaM2zWJmJhhMvIIWCY9f/A0D5eBKOAA2aFicphNPpCKQ5hfrZgar1gaBvAApoIqMcd84EhEuAh7TmBuNv8ACY7gYwAAjIWACMMojxMWYcCYXQ8GAI2gB44gCDLCAalSAR83ZmBCBC9gX3dYjRskBG8nCeyWVL81d0lhGk6mWFFnBVQwc+e4kSlQAmv4A5EgCI34iHgAWofQCIMQZBWWkpR4iX2gC4qQVoNWJWqoRy1AYLFnQjyokEW4UEeQkKyUckuHhOsDjmCCd89DC5/GkVDYKBUAL3YmVmswZ3AWZ4oADHMwZ2EoGgSgAKh0KqHIfN4mhdBnijwJSDlgllMklBJpFKXRAQQYJQLZRC/ghkzJkd/zAPlhAAUFG2/TAQrwAFx0i2ooaW04KBNwhaF3ltXIlq5YFKUxk0qiZZL/Bn53eZlFNC0cUik7gx/AsAkK8DvfAmwy1n3Ll2+5RmhX+JCMWY1yx42QORpWgIZe8gDssUUWl16zoiRYJ0qNkkRT4jgpI1fEqQNHYpzIiQLsspzKqZxc8zJkwjUZsiALszAMgwTIgzwfsp0zIwE8hCAZEAE1M54roAER8CPmqTm4IiDsKUackytskiv8swkCh5NdQgSc0DdA2ZoK95pHQYYr0CUHyWQcQCFnwiBnhEbcyZ3fiSDiaSASIJ4TQCkUajaawwkOwAm48gAY+gKcIAicMzH+cyInogCWYAkmqgApCpr4oQD60TO8Yz8yGj65ozseIAc64gEI4AEeAEND/9MCLlIeVvA+epMdBGADBJCk72MDLdiXruMamvYadjMnTRaXXoKfjyCB/HmW/hmbSPOVTOJcocGX34E3eDMexteXSOMeUcoZbboZ8WUF8XWkNrA622EDj5CkMcKXb/M2bfOnpWAAHlAKLGIfPLqjO6qjGmM/HoAfCYA/Kso//fM/YURGD/CgIlJA33k8FpCdEXJGnjqhJ8MomGAFWrqlPDl6QxkUpcExYBJBo5MxMrQACbAfvaMAkpozADIxweMjlkpGGkApwYqew0qhEXCsEXqsyhoBE6CsDYomFjAB2nlG0tqp0togZ7Q80Sk5WiNEQ9QkuWlHOXWLVMcoTHMGR/9Ajah6lqralj8RmTcFJaJUrrgoYlniWo4zMJhpKERwBmq5rgrXro/5rqPRAUtZmvvaTOHqdyhAOADLnwILmwQrGnFAg8iiLLTiBKQiJBWgnWPDQw3DIRxiARRwIRiiQE4wAggjOSq7sQqjMJ0as52KAdEarWMTrSBCMxlwqaJyqef5oAe0IWokAkVinB54Lh+GLiUgBhr0sK15BPIiFKURoLFSg4ByJjv7Ai66IuKzN+gzHht2NyV2pEdDtjaAXDKCpCqUpH3qNoFqAIEaqGu7tuVBpEoqN3qapGrbl0h6G+mRtyrkIjoKmP4hICvArBtCJAurTBHktFv6ZavaE6T/sQnkaihOQAE72ybXkj7q07nuoTcwhAC4+iNBQiZHa3OLS19U4Lj8SYGRuxNkiAHKMnKvcR3iQR5DmrtxUh4saB5WUD5ywrstEAfDGyfEe7wplbzKq1LMq7zD2wLQ+7zEG70xAL2/GwMq9LtCKid3i7staHwlFje+AaS6MywS4CenyzIosAlvx7pn6bruCruj8QJbYiiV1HVKcAZTMAb8y79b8L+iwL8vhQlPEAqjYMBnwHgKrMBnEA39l8AP3H8OHMFnIFMWfMEYnMEW7E7ypMEYXMEVDAoyBcIU3H+f0MCjkMIqrMKXcAnRMAqXAMMxrAwFnAXKoAVTMAUAzAW//5e81qumLFceHrAJDjAqQzVsADMBj8Ca7iuH8DuwOkEaBkC0n3YkOed1wgRS8aQE9fR4SmB7X2x77OfFZKx4hDdMZgxSIEV4S7DFZ6x4cBzHircEdFzHdtzGcBzGcrzH7sd+aRzHhKfGwefHfFzH60fIeXx7dQxMYaB4Iwx/o6AFXTUFXPBVcRC8SWMFcpAARRyIAJMCY2AF/9rEiWaEr5sTpBEHu8IBRUAEXYfFbrzFcDzGftzHZ6zHc7zHuTzGirzIIFXLuKzLcWzHcHzIwnzMdHzIiKzL63fMw0zHexzI7dfHyyzHv9TFHSwGn/AENDxS8kdS+7sF0HXE56LE7ZJLytX4xFCME6URB1OAxWQcT8hse2xcx858z/M8x9LszMksx4aMz7Ncz+53z9AM0NO8z8NszPhszGEsz4msyLG8A0lQBKmLAiDDxOjcbuossag8GjHACfMUzwY9yyNd0sKczNXszwX9zH0M0AVtyCndzCaN0irtxzJ90rbMy4BsxoTsfl/8SxRtdWFqHvuZ0aWch//FMRrKEHwObdJO/dTDPM0EjdAq7dIIvdL6jNUlrdUDzX5andDTTMz+rMvQTHhcrKEWiyijtiQZwB2jbNSriNRR7NFdnMdQfdd4fdOFnNKAzNfPHM2I/NUlrddSzdPI7NcLfXuOTAWMhEtGpG7nDNfTt9GSOxpfEMx4ndlOLdj6jM+cHdBkHdhUPdM9vc+cPdCa3dVTsFpG2SpiitGSbXRy3dGi8QSCrNm47dSEPcu17My7/dfCbMyIPdLNbM99Hdq4XdZfEBoAaTUZsB5vHdsMRdnyKxqSMNq5nd38nNKo7dl+3d3Ind3/XMh8jN1Q7dP4xNxWAzIxIN0NaMrxaxP/pDEG5q3d9m3Qnw3YOH3fBM3ZhJ3fm91+UoAJejQArpooTuA8ke3esu1icy0ajcffEn7SV13f5E3WFj7h+w3aEv5LoWBR6xE9iVIB1wHbDC5Y8L3ONTEaVFB7Gv7icwzeAC7Hv13YME7cPT3cd71++cvYAVCxyRKN0H3i0SaEDs7OozEFN77kL53hVV3eS77VMP3iWywGorAZNhUr6lZ9RB5tUVvdqzUKUX7jyjzj+v3kY47fZp7bYqBuyngoIqBa6trlK2bkp0wTo3HdmS1PoaCCojAFyjBPad5+hP7UXO3kg97ZN+7TUIAE6pblhTIB1xHddF49X/7gnEEFTe3U/2dgCyBOsV+ACZ+Q6DW+0IGt44mey2muBCLANmmtJA4w5JW+Yqx45Ddh2VAtT1OwjUgTB7YgBmne01LO4ale7Me8xUWQY6k5JVtO6ZXeimDOGZiA2QB9Bj7OGXIgCIJgCnU2J6JwgsZ+3qge7oMuBUQwmNKjWgs+60UI7ZjOGUs92EqgDK0oB6eACqgAC27QB6wQCWOqVeTu2WyM6AG/6kGNLBhwHUXN7oN16UjeiY1H8FBQqqIRCauA7xiP772QWqHx6wW/3cb98R+vBCP4JA8g6wyP4g5/60hzBiZN8WJr8Rk/86iwCoIQGl8A7CK/8zyvy/HUyoXC3s5O5ynO0f8rLhoxIOgGrQzGB1YxcvE0P/NuIAhOqlUS3/NYP+YkL0oWxeUpr2i2fvShkfQAPUxOsx5fsNwBQAuwEPU0Dwt0kFaYkPV0v/NSQNGQJiNz/vXSFvZ4TrGPt9BXHgNfYAvXEQlu4PZR7wa0EF+SoH51H/kB33cR4Gx8r/J+PxMsnuHDpAyxcwShcOUBoAuK7/awcPObMQbjLvmsf9933yWxLsqX35MrL/ahoekALQYWRQUjdT2R0Aul7/ar4O/2Jeatf/xa72+PZV9DT/S1//ei0eL33PmMNA3KYAubIQjBr/iMsEjAh/zgD+Mkj1BdP/u0n/kxQRp6Pv2M/QXKoAz/Pi4N26/4KsBkoXDb4Z//2o33SmIBAPEogJAZBQ0eRJhQ4UKGDR0WzGElwMSJ1yxexJhR40aOHT1epBgyjhgoJU2ehKJETIw4ypRBixPAgDNUNW3exJlz1Y+JoqSgBBpU6FCiRY0eRZpU6VKmJ5VIUYIixdQVE488xJpVK9YcEUMG+BhW7FiOXyfGEPN0qBQxBr5AcykpALCcdYMRIzYMbzBUfAVNfKRMSVPChQ0fRpz4aJGpKRwEsNJk62TKk72GJJtZs0ezAR6dMSrGFiaXmGIEUFTXJjFkjRoBgA0bUaNEjfAIDECFpGLevX3/TqxEyVQUHCDnqJxcucKuEjFv/4YevbOVMz+JSokGV9k0iYJUH3oNgJBsAIhil0+miGIotcDdv4cPf3gKFAgCxEC+XP/yyxSj/9dsulCOOsMlZb6QiJaciElGvPIeNK+8QhApBLZXKMLEuvg25LBDpZ5SgogURDAgAEn2QzG5/ioCsMWwOgtAMKOieUmZJiZS0CY8kBmvxwcfDK8QIQvRA7cxBvMwSSWXPImxCiQiKEUptWrCOf9cxLKszjBpTyglaHTpxgBUsCkYZnw0L0LzKpRQyPLUy01DJuek072oIrBqSj0fqvKrLP/MCMYplpjRQFEmSq2mQ3wcDwAhXxNyzSGFpGOiOKSQs05NNyUMqhQemAlIsj1HVajP5wD/BRRGW4ySokC4vpgoEjdQ4dHB8V4L0k0KJwXAkYms+IRTYYf9UAoijLMiP1KXLUjMU1HNEsYxjhJNFFvElKMXPQhhFLYKJ4TQ0UkL6ePXLJAkNl11gVLiUPyYhfcIK1mENtrOROlSqE9iskKU0x7xpRFGK2xkXIOHBAAPDIfNNNN1hVUiphPhZdbZK+vFEkYqpCCUKNGo+OIXuQLoAzZuAYBU3IMNLneiL/J9OGZOxZDLB4qZPcIsjO0169LQQjGQiol0OTnINlfmteUARFnXYZk1ZSumKG8eNWc/d3YRRknScvqk7JTZ5VDUXmv0NUmRRtjXiahA92m36TzjNFGp/97T6mexlq4zA3YrqsDtxLaBj3DRPhgAPyjy6W3F52wrWbqr1hlvAGGkruuTxHgpjtMm8mPNcHclHJHDJzpycdM9ZCuGiR/XU4jIJc/bLCuiOUoKoDGxpYWJ5MDjaMLdDI8VDC0/vXjFnvriC9b3dP1q2GP/ahSoimJLO7EDoGO838d19BA5KJLRePGBsx2a5Vt//fnNYMQEKSWA3s65RwQHfftCCFH7vurG5583TF8635R8kD71ZYZ9SKmeS4QWKz2ozH56+B7pYNY/CjZFDKEwXwBTNEDnFdCAnbEF8UryFDF8YRrb2RxqDvE7lJWnEaODjPQqOMPCiAEaGdTgfv84eDcPigVG+ELKKKxAhROKwkqC2EMLCZcw3MSpbTSEIqtsmMMUjYyHPfzID0VYkladhgouiQlFIsGH7TWiUoBRRseiuMaifAmAVNSPFS+GRR92Jg4TDIoUDmWFL2wnjLtzRAORdgg6DIAiU4AKx9i4SKFEIxTKgmNyUjhHOmaxM2hJyhMEwse/fSUSjNBDwcalhz+ERBQkUYIaGbnKlNAokvyRI70qaUmzGGB/tRNbv6aBuz/GyhGHcFQj8sCISIREN09RJStX6cpXqmiSYJllHWUXrKSMwopDtMU0vtDLAAgCD32gQwQpQgXQLCGZykzKFonlRop1pQlHaEITILn/nxVBM5ov6swolnKGBVLEAKSgwjMfYYOvWGEKXHsiOhnJTFLlQAiSkEhEY3CEeSonB8+8pzS/ogylQKWEMAKppdJ4EnUqdHxQYaiecuCDeX1FEnPjT0szik+zcKmjKlFGHAgQUmMeVDiKNClTSkqslErpoSGxggEkEQdJxOA0PqgoZUxFyZlqRFBQGCqIVPIEf1EuDqLIwk/wGFRGjuKNRm2pFeJABVF0gK1HgCqKZFrVjsDoZU3R0BlCgYkpfEEUW5gCJs5whp8mlKyrlIIJWye/eRngq2y1RVSlOle6buSHh4FKYQubkqEeViid5VTqvsADKZlKEavQhSlC8gi28lKBCvKkJ2UrG6jObAwxGsLtOT2rzGi4BYf6ycHIjjErVPBBF+JcawdEwVTJUkm2swWJHUG7W+oaRQlCpMJvLcpBRfQCJ6fAzQAeK7SrxLSD0I3uV9Ay3eq2NyihMJF2k9M8OayiLrrADWtFQQUrrC45dqMqeqcDGvcWuDBPuM809tOEzdFBNaj4i6Xc+oh3KWeqskSvRaajzw6x18Ayg+8jptHcrDRPVrBQzStwYwC2tiAyy7EYhjMMI45+2Ma1U4IyJALT5IwsRw+OcG6oEBMeT0Ze553xlgzrHg/fOF2XyBOMI/qKB9dExWdxbQDK+18C/ybZLFPYUJOdvC4hDkQ/VstWlVHRiwiylr9TqwyAZSzgziByzHd+r0DgXJmRqaAYaoaFaiGz1kfs2chdprNZmIZnRnPxDBKxmYWdowtUoLjKtPCnvyI9X0Qn2phibjQ6V2Ki5TTPAKv4s5qlQZEYvLnUnYaudEN9ZxLqzr+U4WAkLK3mVeSXCgTYdGWad0VPs1oMoJ41I8UQkwpXZnPeUXNNemEfyFDBAMHGNaxnO2DqisFvmCCNMkJx7FmrRC7NtszmfhxtSFAkDlbA9mR2GOBiU0SGZA2FLfhrFgqLYgq3xLMUJEbihphq3WoOsubivZVY2jPD6d1oUFv1hSaGNP8GtuCbkzElNHRvxeDRtoku3H3tyiAnuNquLPuWvEYxmOYrj/iBHB6xhoqLFNmLFPh9CM4QZ7EC5DURnqXiYGg+deWiSH64XbGK2BzPOwCR0MUpejH1VayCDpGouBW2QDuNc3znCzGVz38e9ACsFRdSNTlGH25Vs5SOlZho6SR6gYe6wOIVtAhESCQhmJvTkGY65/LQfo6KoKv1tZYp74UdvnYNm8W2jJTCFOZlBRV4V829EEQTA3PjZQM+zs7xw+DJ/tUyWMYgimc8bb/iM5xLHjKb6+7P3XBcd3PYwKPuOJUoIo3Bi9xSVLCFhVG+bbNsjZFwLzsVDBkJ+w4eFav/KObaCOxetpToxZUJ++Bh+NWvL+TIxPYyUgEOxVBIhApHOM0PHOF8m0AfcRmv7qM9P9mJQBvkq7aUKLqvkGHTO/wUoY41wpRDiYNpCKODc75XEKcQoj75uz7KuIxjEL1x0j/lcLrFYzwaGyvxWYJosAI+ghXUsDz2swk/wA0C4Lv2kr/cy4qjm4vBwzRLUR4LHL6U25I1UgJMKDsDlIlTIEGcKAayS5zqkoJR+JX9QwgXTDOQU4FfAZnlaLjUU72QALMoSqyLC0H7+0Gb6AVgAAzboy74gowi04qRMYARVDNBGyIyzAo5m7O164wviKIlqJac8gwq28Lvwo1Fq64n/4goJEQIu1m/aIOF6HsEURACQDSIC8TADFS0DTQeR9oF7kCNXQM5YniwQDuL8TusaThC5fg+Sou2VSgFJ+wvRaynRnTEr3g8GoIfBAkAUbQJWLDEmggGZECGZGiE2WgEXEy1mpAGggqAL+g748nBX2FDrnCOROG1nZKJzUlGhnBDVYTD4ivG0MIgZRCaJbSLQ9DFCHEUCUEPZMDENYs+W6quKUBGi9ocXkBD1Tij+3COaFyIhqPGpDOLGKCmGQKFXdgFlzOFWrSJUNIeR0kTXYmNXuSLSQCfdFxHGhQ8NWtCyMCNGKDHhFC8N6zGgpq+CpICHtgFW5AIWbwJYkiE8f9Ik8GZFHDsRaWZAkhcJVt4SE6biGMQyJtwhggaANy4NaxwnZa6R3wMiQEIhWusE+zgAR4QGx/EidYgD15ByAjBlUeJviEkK6gIwQfEvs15BN57sFMASqJzCIgCSilku6+wqRn6GlKADKasCWIAppNByc8xmHB8FDgZCd1Cp1xSRITYIUW4yUoTtJBgwYaICKeqwVj7MigCBZCMiUcYxL4wG9lwE/txE8P5lY4MKiVYIK3cSsDwypwAL7MQy4aQl6ZCOimMw5UrHhrZBbZ8hOYLhgYxj4JMScsEAKUJn8PiSx2iCFOgCZyABTjRO0VkKSF4LrO8hnuhoS/BIKF5BMtYAyY2OUjLBB4A4INDWgKjfBsp6My+RAgG+83gbL+as4It04rgkgQ3VM4pHCfupBMwYcsfsC9gGhwHss5CyM6JqMKrzLnjAM+DmDdBIK5Km8iQWDg+ean+0//IVRQJ+OMfMdgFZWBLAjgFYjAbhKnO/GQi/vQslQijwky3kFCB5us19QJPybjA9nTP+yA3CkqgBaKDuCSPs8lPIeEDQwqAQfGsUZs//bgwXqCFUwiyiXgp/XimoNxIAATD/rGd15wIFSAbJbpR7lGa9jms1DmLAE0I9JMdvbtIh6gnFm3RAGAP+FwS7NiFEJSDQ/AccKlShCG7FCSrM6hILsVIlpqOIwXS5GzPG5wh5xTJiXAEytSVOC2ERiBOZUBTmdHSH02RJkDNX/EB9Hy11DRLQFXLlyiRp0uGb0HUSYEge2PNDlsSMeDJhsqBd6IoAUrM/5uIVZkhOnQJtpz/CGfYUETFTh2NAc1UqC46i2Yqw1eFVXxpVCV5UpmM0ukM1SFhBMSBSTZSAvkjNWF9iDEl0xZtRQpyI2joJz8QpWYthFKaCEZlGNQps2q11oLzUxbtmWNN0wkNQc8gI3G9gzWYCFsSDs/ywGBdV9Ns1z9VLwg9KTEAmWnoJznIg2Y9hCAbQnhVl+titX9tCAZV0tQzCwKIhmhVnEfrF1tIIUVoIEjJTzMKCS4pVZwrPyOlWIZY0WzFiM6oMQraTgf8gk3Q0afDgypFBD5oopFIF4g9CSNk2ZZViFiC2TJNS48MIyuwhevRWfz8HTwQpwDgEqF9GGWgCEnAU9ZRu6Rt/7yv6M8KWgJ1/BVRgFo56INwXaJDIM6lIViTKsKtNVqF+FqwvZeUNZ0z+KMY2K+h/CXfOZg8iEeZGAWOZSStLdq6NQg5A9uYVbQ1GoVJmlSKEAQ9QJtGcISqtYKibK9jXFzGPTnwc9eeiVv+0UGkMgtFyAP8bAQ96IMivY8noD4oUNwASNB/fdnHDVtjE8ApEEaQUgQ3bYRDgN2r65mZ/VyzxV3GbZa75V3Z4USPxATdCSlIEARFwLrp+IK0+LDUbV7RjULehbiGlNZRgFqeerns4qzvpYjcFdbv8z+YVTJlUwYjUt+zEAXBSqQbU9bwNVoXJN1srTPI29dRmILlirwDzXkEKxgAiYgDW3iCtFgCtdBbuWVe+H0l+W1Q+n1EyDOJwWALMfC2UQiFJwiFHfiJ/r2zMaCI0nwlAZ5fD2ZFrJ0TZEqkwkqk7Sy3edVgOOLgiyXTS1rhVdLLkjCnZJtXGI6k8SXfFm0BX022LHXhiWBiKmLPJz5LJgWqKf7Q67niHHJiLS7fcj1iL1amdnnhlkU9Mi7Tl0Rj6roeS22mlSLWIf4yG47jdZpjio2xDn7cvN1jz+onOn6lMf924959z0GWODWOMmsNYiFO2kt6UUZWqEL+V0RO5OXMRym2ZEbCZEjujE3e4i/UuDHrpzB9HEm940k2C+X9ZMQK5WayWEkO5MXU45jJZcQQg2iIhjOIBhJ+D+/8FUPWoIwkZcsyCzmMZSXJji+QBAOwAgpTKrTFhNPtlFQWVk1OZk7+CiBq5jALhS/oVJCyghj4As9NDCkYGc/MIeRsZbx1vF2OY9vB3/w9W67DLG2Go65I0m5W5oEN5/cooXKOFVMQBDrQhUlQAVOQg5wVKcT9rKbtWhSR4RlO5EvyZOqi56EIhX6aCAKgA+/6RWk7BRWo2kcgRsPovFCpaP5gRID/1pLVureB5g07hIxfcTBey7yQGIMm+7vjAOJRlumADglYtmnDkAJlsL4hCwAb2GmQc4TogwwstSCKpiLxxFSZrt+k5mWJsYVBZcafc7+zaNKkaGkRvZnR3WqAjsOl82rDkDwqII2YqC8SLGvcxebP8lHH0aCYLuqZNqULjmuhCIWvehXI8IOSHry8JkbQagsjfenPi2cyrq2OHjOoUAZbMJDTMIUCxevoM6ilUInNUeuKSVJb3mRKLuzCsB2XOJRHcMstXIUIioEzrR0oiJvQfZyLBmSuriV9bu0PwZzMCYCAzEObiEegPYqnsFPephq2HuDA9mYAJCzMdjIwgcXZ/85DZ6A2q1UKau3JdgJs6uaMVx5uoYIfoXHH5L4JPxBGq6SedP1h5oER86alk5Xo9Lah+AkABMzDXjjH6TXs92WdSFZtt17m9P4Q7ZYI7nZv+J4Iq76O91ljusnIBFfwbyZsBqcRHpQD8nTvmnCD6NtWogBfY66a1MZvjXI3TGHw2omGf9QdXgDtEUeFGGwB4R6KHKMIFVcpe2xxFzdS741x6gHJQdVCHEeFU3DGsV2L1D3PtRbyISfyR4gG7DYwtlAGpZwIsWPymoCFNlibvU6JFL8ZRtTwwM6nDm9tCcVpCMdxOLGCsw6K/1Xl5VBzKx8LmT1yowAFsHnM5nuwYorAi0NABkRHBj3AiweLRwr/rCp258Uiaj6nKSp088L+cN2JTtVgjV20FZMRj+Ilx5zAv2E8iqzMc2EDyjU3bxCC6z9nlw+XiFIg9NUAdfLoER+JDURIhHK0sj20rlxadSNrdUsnC0GW9UZShl+odREPhkVxEDV5kF3fddg4hHI80bKDcaLozVGB58r/bnHWXnaU2E7MGVRuxFBDrZCUrHaTYRREQIZi6IWK3GtihtQU8dJKR3YiD4CaLneToJF0tzxicPfbNMgaDXUfsY0Vq2SgwJQQnezTS21XH/K3RictJ4ol+IR8e3ZUWPf7NI/wOPhpD/VRdVGieIoQ3ROtFncr12iNby9QgAZKjM11r02VTPjByXkfuQ1LEYMz9tHxhrGK7/f1KWCJSxeOB6OJeIXJhEruoZAHucyUHI+fzw1sbpVOJfrkcPm2Pnqj/rRffRgbwoSRKdS5TMm1t0uCCZdwyZ8TBwpqre8WtEeLR3YaC3gkZosJlVGol9rr3BW7fHtCiEf5Dgr6ThHp/57usBdsU5L53dpOkLTVSLBPqN+ekfeWBzkEqoZjohBDM6Onu3d86EEqOz/y7QyFfKMIPpj6Q7WfcJxMPnCOAFyLHHOOMHYIVub30v8gENrvpM6OX7BeOmhWo2mEhMOUM0ZzGCN93zd9VttoOon8MCtusVFYcX0QrN/RJO5xKQdyBb1v6I/+Q9r7kujv//UDKkXUFwqJSzjjksBzCzN68i//It/7yBOFX1CGkQGIR3wKESxo8CDCggDyyAngUJQUKBInUoQiRckXhwGazOjo8SNIkE0kaSwZ4BrKlCpXsmzp8iXMmDJn0qzZ0qTGAZgq8uzp8yfQnhGDEi1q9CjSiv9SqASIY0uUxkh6ACSsmlCPIo0xRikZChRqACs5QpINeSQGToc217Jt6/bt2rQODYRKavcu3rx69S7JGMCArTgaBR2yapjgIUElpywputSh2LKSZzRBmxYu5syaN7+U65CKmL2iR5MubfSS5RiirGh01Ohw1UN0SoJe0jioFMEBYoydbJb1Zc7ChxO36TnAFK+mkypf7ly0lMZgA7Rg6vBRH9gIG/kpaUAZlNs/L4pJ3du3xyPAcRZv7/49yuNWlHV9bv8+/oqNR7XQajlAJHlQpd0gfCimFSZKWCTeT6MAF0NIORxx3kfqyQUfhhludlwM0eT3IYjL2YYJAXJFwsf/a1Y10ggedAxQ0iP0RcegUEooo5EkIQkRA0cf5SCEZxoKOSRbxwVAxRnNhbgkk451NcV6JsnhSCIANDJgQSz68YhJMdAX3lGYaOQDSDnEAKGPJAVHJJttwmRkHGc0OSedQN1GomeC5JHlIXc4QkdDJlHBVX1HTTEmSEcEQKZHI13oJqSRpmRkAJIkWSemmVqkBCa6pRWJH378oUgkXOIUAyZiFIqUXwEIkWYAR6T3n0mS2hoppYCFpimvTSpxxmqUpvWIKIQqWdQYGsmaXli9CRFlSbdK66awkmAixbG9amvaRVJgYp2wR9oySrd5tdpjRz4sOkMO6j46LbxChhuA+yh1bXvvfUqIoYwoBkB7XQxxjKGMqntdlOxu55kZaw5qrhkvxBjOa8UU0WSLL8Z2dauEvqMog8kUIWMSyihiYNvVEhftJWalFVphxY7vRjwzfPP+RcUUoeyaMc941XdRV0FvrCCNeElxhiRWfPGRuv9qRDPUEtscFhVf6Hxxz1n3ZJvKQhXtMxSY2AJNR01YGGTUabs3tXeiTKFMNCZrPbdPX98XjTLQ2BIz2mr7XRzbOFkRQ9VvjxI31nQrblooX8ThdLR/S05c4PKdSYXbcIsh9+KdG3wGJj5AHvnkpXNW+cQxSIL5F1NgokwoZ2yOree1K4X3GFTQ2rfp/71viHrlL1uxuihf2ILJ64fLzrnt926uzBT92uw79cIBf73gZwYsRPGtfxxKKHEz3zx+YoQCvSi7C1s9+5Rj/75nVjxigOpUsH7867GLz3zitWO7Od6UYYsvpM9UbGsfAt8DvwUK6xEvO1Mc4mC/L1AQea+D3eH2ZzJs9e9D/xNDNM6HPAqKggqS8Bf8EqjCITGwhWwTHv1UtzrM2U8UNqRg64w3Bfy97oKwOx/4lCHEHiLPFjs0Ig5taEP7MTEG8nPh01YoRUlBsYpWLMmLrpjCKXIRYlr8IhjDSLouklFyYjwjGtdXxjWSMY1uXCAb4yhHt7wxcHO8Ix7zqMc98j+xj378IyADKchBErKQhjwkIhOpyEUyspGOfCQkIynJSVKykpa8JCYzqclNcrKTnvwkKEMpylGSspSmPCWGAgIAOw==;" vertex="1" parent="7">
                    <mxGeometry x="410" y="180" width="320.1" height="273" as="geometry"/>
                </mxCell>
            </root>
        </mxGraphModel>
    </diagram>
</mxfile>